<svg id="OBJECTS" xmlns="http://www.w3.org/2000/svg" xmlns:xlink="http://www.w3.org/1999/xlink" viewBox="0 0 215.27 229.31"><defs><linearGradient id="Degradado_sin_nombre_340" x1="423.19" y1="302.05" x2="166.49" y2="173.89" gradientUnits="userSpaceOnUse"><stop offset="0" stop-color="#7a42c7"/><stop offset="0.53" stop-color="#fe004a"/><stop offset="1" stop-color="#538acd"/></linearGradient><linearGradient id="Degradado_sin_nombre_340-2" x1="412.8" y1="285.54" x2="152.78" y2="155.73" xlink:href="#Degradado_sin_nombre_340"/><linearGradient id="Degradado_sin_nombre_340-3" x1="250" y1="98.31" x2="250" y2="355.44" gradientTransform="translate(37.21 -36.68) rotate(9.06)" xlink:href="#Degradado_sin_nombre_340"/><linearGradient id="Degradado_sin_nombre_340-4" x1="404.07" y1="303.03" x2="144.05" y2="173.22" xlink:href="#Degradado_sin_nombre_340"/><linearGradient id="Degradado_sin_nombre_340-5" x1="230.05" y1="98.31" x2="230.05" y2="355.44" xlink:href="#Degradado_sin_nombre_340"/><linearGradient id="Degradado_sin_nombre_340-6" x1="107.28" y1="-27.88" x2="107.28" y2="229.25" xlink:href="#Degradado_sin_nombre_340"/><linearGradient id="Degradado_sin_nombre_340-7" x1="98.28" y1="-27.88" x2="98.28" y2="229.25" xlink:href="#Degradado_sin_nombre_340"/><linearGradient id="Degradado_sin_nombre_340-8" x1="114.9" y1="-27.88" x2="114.9" y2="229.25" xlink:href="#Degradado_sin_nombre_340"/></defs><path d="M250,126.19a89.4,89.4,0,1,0,89.4,89.4A89.39,89.39,0,0,0,250,126.19Zm0,167.67a78.28,78.28,0,1,1,78.28-78.27A78.28,78.28,0,0,1,250,293.86Z" transform="translate(-140.59 -126.19)" style="fill:url(#Degradado_sin_nombre_340)"/><path d="M261.59,180.8c-21.94-7.28-43.06-11.79-61.19-13.56-1.72,4.5-4.52,8.68-6.2,13.26,15.65-2.47,39.4.39,64.6,8.73,40.87,13.55,70.07,36.41,65.21,51.07-1.46,4.43-5.87,7.6-12.43,9.5-1.83,5-3.95,10-6.33,15,26.94,1.83,46.24-2.89,50-14.14C361.62,231.32,319.7,200.05,261.59,180.8Z" transform="translate(-140.59 -126.19)" style="fill:url(#Degradado_sin_nombre_340-2)"/><circle cx="250" cy="216.42" r="54.29" transform="translate(-171.56 -84.11) rotate(-9.06)" style="fill:url(#Degradado_sin_nombre_340-3)"/><path d="M241.2,242.33c-40.87-13.55-70.07-36.41-65.21-51.07,1.86-5.63,8.47-9.22,18.21-10.76,1.68-4.58,4.48-8.76,6.2-13.26-29.87-2.91-51.63,1.66-55.62,13.68-6.4,19.32,35.52,50.59,93.63,69.85,24.27,8,47.52,12.71,66.84,14,2.38-4.94,4.5-9.95,6.33-15C296.42,254.19,269.74,251.78,241.2,242.33Z" transform="translate(-140.59 -126.19)" style="fill:url(#Degradado_sin_nombre_340-4)"/><path d="M234.41,153a4.36,4.36,0,1,1-4.36-4.35A4.36,4.36,0,0,1,234.41,153Z" transform="translate(-140.59 -126.19)" style="fill:url(#Degradado_sin_nombre_340-5)"/><circle cx="107.28" cy="37.5" r="9" style="fill:url(#Degradado_sin_nombre_340-6)"/><circle cx="98.28" cy="142" r="9" style="fill:url(#Degradado_sin_nombre_340-7)"/><circle cx="114.9" cy="156.62" r="3.85" style="fill:url(#Degradado_sin_nombre_340-8)"/><text transform="translate(121.09 220.52)" style="font-size:34px;fill:#fe004a;font-family:KronaOne-Regular, Krona One">DEV</text><text transform="translate(1.31 220.5)" style="font-size:34px;fill:#fff;font-family:KronaOne-Regular, Krona One">JOSS</text></svg>