<svg id="OBJECTS" xmlns="http://www.w3.org/2000/svg" xmlns:xlink="http://www.w3.org/1999/xlink" viewBox="0 0 211.72 178.8"><defs><linearGradient id="Degradado_sin_nombre_340" x1="423.19" y1="336.46" x2="166.49" y2="208.31" gradientUnits="userSpaceOnUse"><stop offset="0" stop-color="#7a42c7"/><stop offset="0.53" stop-color="#fe004a"/><stop offset="1" stop-color="#538acd"/></linearGradient><linearGradient id="Degradado_sin_nombre_340-2" x1="412.8" y1="319.96" x2="152.78" y2="190.14" xlink:href="#Degradado_sin_nombre_340"/><linearGradient id="Degradado_sin_nombre_340-3" x1="250" y1="132.72" x2="250" y2="389.85" gradientTransform="translate(42.63 -36.25) rotate(9.06)" xlink:href="#Degradado_sin_nombre_340"/><linearGradient id="Degradado_sin_nombre_340-4" x1="404.07" y1="337.45" x2="144.05" y2="207.63" xlink:href="#Degradado_sin_nombre_340"/><linearGradient id="Degradado_sin_nombre_340-5" x1="230.05" y1="132.72" x2="230.05" y2="389.85" xlink:href="#Degradado_sin_nombre_340"/><linearGradient id="Degradado_sin_nombre_340-6" x1="103.73" y1="-27.88" x2="103.73" y2="229.25" xlink:href="#Degradado_sin_nombre_340"/><linearGradient id="Degradado_sin_nombre_340-7" x1="94.73" y1="-27.88" x2="94.73" y2="229.25" xlink:href="#Degradado_sin_nombre_340"/><linearGradient id="Degradado_sin_nombre_340-8" x1="111.35" y1="-27.88" x2="111.35" y2="229.25" xlink:href="#Degradado_sin_nombre_340"/></defs><path d="M250,160.6A89.4,89.4,0,1,0,339.4,250,89.41,89.41,0,0,0,250,160.6Zm0,167.68A78.28,78.28,0,1,1,328.28,250,78.28,78.28,0,0,1,250,328.28Z" transform="translate(-144.14 -160.6)" style="fill:url(#Degradado_sin_nombre_340)"/><path d="M261.59,215.21c-21.94-7.27-43.06-11.79-61.18-13.55-1.73,4.49-4.53,8.67-6.21,13.25,15.65-2.47,39.4.39,64.6,8.73,40.87,13.55,70.07,36.41,65.21,51.07-1.46,4.43-5.87,7.6-12.43,9.5-1.83,5-3.95,10-6.33,15,26.94,1.83,46.24-2.89,50-14.14C361.62,265.73,319.7,234.46,261.59,215.21Z" transform="translate(-144.14 -160.6)" style="fill:url(#Degradado_sin_nombre_340-2)"/><circle cx="250" cy="250.83" r="54.29" transform="matrix(0.99, -0.16, 0.16, 0.99, -180.53, -118.09)" style="fill:url(#Degradado_sin_nombre_340-3)"/><text transform="translate(63.67 90.23)" style="font-size:26.29671859741211px;fill:#fff;font-family:KronaOne-Regular, Krona One">JOSS</text><path d="M241.2,276.74c-40.87-13.54-70.07-36.41-65.21-51.07,1.86-5.63,8.47-9.22,18.21-10.76,1.68-4.58,4.48-8.76,6.21-13.25-29.88-2.91-51.64,1.65-55.63,13.67-6.4,19.32,35.52,50.59,93.63,69.85,24.27,8,47.52,12.71,66.84,14,2.38-4.94,4.5-9.95,6.33-15C296.42,288.6,269.74,286.19,241.2,276.74Z" transform="translate(-144.14 -160.6)" style="fill:url(#Degradado_sin_nombre_340-4)"/><path d="M234.41,187.41a4.36,4.36,0,1,1-4.36-4.35A4.36,4.36,0,0,1,234.41,187.41Z" transform="translate(-144.14 -160.6)" style="fill:url(#Degradado_sin_nombre_340-5)"/><circle cx="103.73" cy="37.5" r="9" style="fill:url(#Degradado_sin_nombre_340-6)"/><circle cx="94.73" cy="142" r="9" style="fill:url(#Degradado_sin_nombre_340-7)"/><circle cx="111.35" cy="156.62" r="3.85" style="fill:url(#Degradado_sin_nombre_340-8)"/></svg>